<svg height="800" width="800" xmlns="http://www.w3.org/2000/svg" viewBox="0 0 392.681 392.681" xml:space="preserve">
    <path style="fill:#56ace0" d="M21.851 55.185v55.725h261.171V55.185"/>
    <path style="fill:#fff" d="M283.022 132.761H21.851v238.157h261.171"/>
    <path style="fill:#ffc10d" d="m181.786 290.11-9.115 32.323 32.258-9.244 123.863-123.798-23.208-23.079z"/>
    <path style="fill:#fff" d="m342.82 129.076-21.85 21.85 23.079 23.079 21.85-21.85c6.4-6.4 6.4-16.743 0-23.079-6.077-6.206-16.873-6.206-23.079 0z"/>
    <path style="fill:#194f82" d="m327.434 113.561-22.626 22.626V44.195c0-6.012-4.848-10.925-10.925-10.925h-41.956V10.967c0-6.012-4.848-10.925-10.925-10.925a10.87 10.87 0 0 0-10.925 10.925V33.27H192.84V10.967c0-6.012-4.848-10.925-10.925-10.925-6.012 0-10.925 4.848-10.925 10.925V33.27h-37.236V10.967c-.065-6.012-4.913-10.925-10.99-10.925a10.87 10.87 0 0 0-10.925 10.925V33.27H74.796V10.967c0-6.012-4.913-10.925-10.99-10.925S52.881 4.89 52.881 10.967V33.27H10.925C4.913 33.27 0 38.118 0 44.195v337.519c0 6.012 4.848 10.925 10.925 10.925h283.022c6.012 0 10.925-4.848 10.925-10.925V244.146l76.606-76.606c14.545-14.998 15.321-38.4 0-53.915-14.545-14.61-39.304-14.868-54.044-.064zM21.851 55.12h31.095v22.303c0 6.012 4.848 10.925 10.925 10.925S74.796 83.5 74.796 77.423V55.12h37.236v22.303c0 6.012 4.848 10.925 10.925 10.925s10.925-4.848 10.925-10.925V55.12h37.236v22.303c0 6.012 4.848 10.925 10.925 10.925 6.012 0 10.925-4.848 10.925-10.925V55.12h37.236v22.303c0 6.012 4.848 10.925 10.925 10.925s10.925-4.848 10.925-10.925V55.12h31.095v55.79H21.98V55.12h-.129zm261.171 315.733H21.851V132.696h261.172v25.277l-26.634 26.634c-1.616-3.943-5.56-6.659-10.02-6.659H58.634c-6.012 0-10.925 4.848-10.925 10.925 0 6.012 4.848 10.925 10.925 10.925h182.497l-43.248 43.378H58.634c-6.012 0-10.925 4.848-10.925 10.925 0 6.077 4.913 10.796 10.925 10.796h117.463l-11.636 11.636a10.914 10.914 0 0 0-2.78 4.719l-7.693 26.958H58.634c-6.012 0-10.925 4.848-10.925 10.925 0 6.012 4.848 10.99 10.925 10.99h89.277l-1.487 5.107c-1.099 3.814 0 7.887 2.78 10.667 2.715 2.715 6.206 3.685 10.667 2.78l53.786-15.192c1.745-.517 3.426-1.487 4.719-2.78l64.646-64.646v104.792zm-78.093-57.664-32.194 9.115 9.115-32.323 123.733-123.733 23.079 23.079-123.733 123.862zM366.028 152.09l-21.85 21.85-23.079-23.079 21.85-21.85c6.206-6.206 16.937-6.206 23.079 0 5.431 5.754 7.305 15.645 0 23.079z"/>
</svg>
